<mxfile host="app.diagrams.net" modified="2021-04-22T13:14:51.420Z" agent="5.0 (Windows NT 10.0; Win64; x64) AppleWebKit/537.36 (KHTML, like Gecko) Chrome/88.0.4324.190 Safari/537.36" etag="27f6aHPnUFttVSke64Yu" version="14.6.5" type="github">
  <diagram id="11sbWVLx3nHT6dPwUtk1" name="Page-1">
    <mxGraphModel dx="2410" dy="643" grid="1" gridSize="10" guides="1" tooltips="1" connect="1" arrows="1" fold="1" page="1" pageScale="1" pageWidth="827" pageHeight="1169" math="0" shadow="0">
      <root>
        <mxCell id="0" />
        <mxCell id="1" parent="0" />
        <mxCell id="iJjQRWK0N4of0FzMb4Ga-1" value="" style="edgeStyle=orthogonalEdgeStyle;rounded=0;orthogonalLoop=1;jettySize=auto;html=1;entryX=0.75;entryY=1;entryDx=0;entryDy=0;fontSize=15;" edge="1" parent="1" source="iJjQRWK0N4of0FzMb4Ga-2" target="iJjQRWK0N4of0FzMb4Ga-4">
          <mxGeometry relative="1" as="geometry" />
        </mxCell>
        <mxCell id="iJjQRWK0N4of0FzMb4Ga-2" value="List接口" style="rounded=1;whiteSpace=wrap;html=1;fontSize=15;" vertex="1" parent="1">
          <mxGeometry x="400" y="280" width="120" height="60" as="geometry" />
        </mxCell>
        <mxCell id="iJjQRWK0N4of0FzMb4Ga-3" value="" style="edgeStyle=orthogonalEdgeStyle;rounded=0;orthogonalLoop=1;jettySize=auto;html=1;fontSize=15;" edge="1" parent="1" source="iJjQRWK0N4of0FzMb4Ga-4" target="iJjQRWK0N4of0FzMb4Ga-5">
          <mxGeometry relative="1" as="geometry" />
        </mxCell>
        <mxCell id="iJjQRWK0N4of0FzMb4Ga-4" value="Collection接口" style="whiteSpace=wrap;html=1;rounded=1;fontSize=15;" vertex="1" parent="1">
          <mxGeometry x="300" y="140" width="120" height="60" as="geometry" />
        </mxCell>
        <mxCell id="iJjQRWK0N4of0FzMb4Ga-5" value="Iterable接口" style="whiteSpace=wrap;html=1;rounded=1;fontSize=15;" vertex="1" parent="1">
          <mxGeometry x="300" y="20" width="120" height="60" as="geometry" />
        </mxCell>
        <mxCell id="iJjQRWK0N4of0FzMb4Ga-6" value="" style="edgeStyle=orthogonalEdgeStyle;rounded=0;orthogonalLoop=1;jettySize=auto;html=1;entryX=0.25;entryY=1;entryDx=0;entryDy=0;dashed=1;fontSize=15;" edge="1" parent="1" source="iJjQRWK0N4of0FzMb4Ga-8" target="iJjQRWK0N4of0FzMb4Ga-4">
          <mxGeometry relative="1" as="geometry" />
        </mxCell>
        <mxCell id="iJjQRWK0N4of0FzMb4Ga-7" value="implements" style="edgeLabel;html=1;align=center;verticalAlign=middle;resizable=0;points=[];fontSize=15;" vertex="1" connectable="0" parent="iJjQRWK0N4of0FzMb4Ga-6">
          <mxGeometry x="0.1067" y="-1" relative="1" as="geometry">
            <mxPoint x="6.670000000000002" y="19" as="offset" />
          </mxGeometry>
        </mxCell>
        <mxCell id="iJjQRWK0N4of0FzMb4Ga-8" value="&lt;div style=&quot;font-size: 15px;&quot;&gt;AbstractCollection类&lt;/div&gt;" style="rounded=1;whiteSpace=wrap;html=1;fontSize=15;" vertex="1" parent="1">
          <mxGeometry x="200" y="280" width="120" height="60" as="geometry" />
        </mxCell>
        <mxCell id="iJjQRWK0N4of0FzMb4Ga-9" style="edgeStyle=orthogonalEdgeStyle;rounded=0;orthogonalLoop=1;jettySize=auto;html=1;entryX=0.5;entryY=1;entryDx=0;entryDy=0;dashed=1;fontSize=15;exitX=0.75;exitY=0;exitDx=0;exitDy=0;" edge="1" parent="1" source="iJjQRWK0N4of0FzMb4Ga-14" target="iJjQRWK0N4of0FzMb4Ga-2">
          <mxGeometry relative="1" as="geometry" />
        </mxCell>
        <mxCell id="iJjQRWK0N4of0FzMb4Ga-10" style="edgeStyle=orthogonalEdgeStyle;rounded=0;orthogonalLoop=1;jettySize=auto;html=1;entryX=0.5;entryY=1;entryDx=0;entryDy=0;dashed=1;fontSize=15;exitX=1;exitY=0;exitDx=0;exitDy=0;" edge="1" parent="1" source="iJjQRWK0N4of0FzMb4Ga-14" target="iJjQRWK0N4of0FzMb4Ga-15">
          <mxGeometry relative="1" as="geometry">
            <mxPoint x="420" y="570" as="sourcePoint" />
          </mxGeometry>
        </mxCell>
        <mxCell id="iJjQRWK0N4of0FzMb4Ga-11" style="edgeStyle=orthogonalEdgeStyle;rounded=0;orthogonalLoop=1;jettySize=auto;html=1;entryX=0.5;entryY=1;entryDx=0;entryDy=0;fontSize=15;" edge="1" parent="1" source="iJjQRWK0N4of0FzMb4Ga-14" target="iJjQRWK0N4of0FzMb4Ga-18">
          <mxGeometry relative="1" as="geometry" />
        </mxCell>
        <mxCell id="iJjQRWK0N4of0FzMb4Ga-12" style="edgeStyle=orthogonalEdgeStyle;rounded=0;orthogonalLoop=1;jettySize=auto;html=1;exitX=0.25;exitY=0;exitDx=0;exitDy=0;entryX=0.5;entryY=1;entryDx=0;entryDy=0;dashed=1;fontSize=15;" edge="1" parent="1" source="iJjQRWK0N4of0FzMb4Ga-14" target="iJjQRWK0N4of0FzMb4Ga-19">
          <mxGeometry relative="1" as="geometry">
            <Array as="points">
              <mxPoint x="350" y="540" />
              <mxPoint x="150" y="540" />
            </Array>
          </mxGeometry>
        </mxCell>
        <mxCell id="iJjQRWK0N4of0FzMb4Ga-13" style="edgeStyle=orthogonalEdgeStyle;rounded=0;orthogonalLoop=1;jettySize=auto;html=1;exitX=0;exitY=0;exitDx=0;exitDy=0;dashed=1;fontSize=15;" edge="1" parent="1" source="iJjQRWK0N4of0FzMb4Ga-14" target="iJjQRWK0N4of0FzMb4Ga-16">
          <mxGeometry relative="1" as="geometry">
            <Array as="points">
              <mxPoint x="320" y="550" />
              <mxPoint x="-40" y="550" />
            </Array>
          </mxGeometry>
        </mxCell>
        <mxCell id="iJjQRWK0N4of0FzMb4Ga-14" value="&lt;div style=&quot;font-size: 15px&quot;&gt;ArrayList类&lt;/div&gt;" style="rounded=1;whiteSpace=wrap;html=1;fontSize=15;" vertex="1" parent="1">
          <mxGeometry x="320" y="580" width="120" height="60" as="geometry" />
        </mxCell>
        <mxCell id="iJjQRWK0N4of0FzMb4Ga-15" value="Cloneable接口" style="rounded=1;whiteSpace=wrap;html=1;fontSize=15;" vertex="1" parent="1">
          <mxGeometry x="510" y="420" width="120" height="60" as="geometry" />
        </mxCell>
        <mxCell id="iJjQRWK0N4of0FzMb4Ga-16" value="RandomAccess接口" style="rounded=1;whiteSpace=wrap;html=1;fontSize=15;" vertex="1" parent="1">
          <mxGeometry x="-100" y="420" width="120" height="60" as="geometry" />
        </mxCell>
        <mxCell id="iJjQRWK0N4of0FzMb4Ga-17" style="edgeStyle=orthogonalEdgeStyle;rounded=0;orthogonalLoop=1;jettySize=auto;html=1;exitX=0.5;exitY=0;exitDx=0;exitDy=0;entryX=0.5;entryY=1;entryDx=0;entryDy=0;fontSize=15;" edge="1" parent="1" source="iJjQRWK0N4of0FzMb4Ga-18" target="iJjQRWK0N4of0FzMb4Ga-8">
          <mxGeometry relative="1" as="geometry" />
        </mxCell>
        <mxCell id="iJjQRWK0N4of0FzMb4Ga-18" value="AbstractList类" style="rounded=1;whiteSpace=wrap;html=1;fontSize=15;" vertex="1" parent="1">
          <mxGeometry x="260" y="420" width="120" height="60" as="geometry" />
        </mxCell>
        <mxCell id="iJjQRWK0N4of0FzMb4Ga-19" value="Seriablizable接口" style="rounded=1;whiteSpace=wrap;html=1;fontSize=15;" vertex="1" parent="1">
          <mxGeometry x="90" y="420" width="120" height="60" as="geometry" />
        </mxCell>
        <mxCell id="iJjQRWK0N4of0FzMb4Ga-20" value="extends" style="text;html=1;align=center;verticalAlign=middle;resizable=0;points=[];autosize=1;fontSize=15;" vertex="1" parent="1">
          <mxGeometry x="360" y="100" width="70" height="20" as="geometry" />
        </mxCell>
      </root>
    </mxGraphModel>
  </diagram>
</mxfile>
